<svg width="92" height="23" viewBox="0 0 92 23" fill="none" xmlns="http://www.w3.org/2000/svg">
<path d="M7.5 22V2.92H0.12V0.999999H17.1V2.92H9.72V22H7.5ZM29.5336 22.18C27.9536 22.18 26.4836 21.92 25.1236 21.4C23.7836 20.86 22.6136 20.11 21.6136 19.15C20.6336 18.17 19.8636 17.04 19.3036 15.76C18.7636 14.46 18.4936 13.04 18.4936 11.5C18.4936 9.96 18.7636 8.55 19.3036 7.27C19.8636 5.97 20.6336 4.84 21.6136 3.88C22.6136 2.9 23.7836 2.15 25.1236 1.63C26.4636 1.09 27.9336 0.819999 29.5336 0.819999C31.1136 0.819999 32.5736 1.09 33.9136 1.63C35.2536 2.15 36.4136 2.89 37.3936 3.85C38.3936 4.81 39.1636 5.94 39.7036 7.24C40.2636 8.54 40.5436 9.96 40.5436 11.5C40.5436 13.04 40.2636 14.46 39.7036 15.76C39.1636 17.06 38.3936 18.19 37.3936 19.15C36.4136 20.11 35.2536 20.86 33.9136 21.4C32.5736 21.92 31.1136 22.18 29.5336 22.18ZM29.5336 20.2C30.7936 20.2 31.9536 19.99 33.0136 19.57C34.0936 19.13 35.0236 18.52 35.8036 17.74C36.6036 16.94 37.2236 16.02 37.6636 14.98C38.1036 13.92 38.3236 12.76 38.3236 11.5C38.3236 10.24 38.1036 9.09 37.6636 8.05C37.2236 6.99 36.6036 6.07 35.8036 5.29C35.0236 4.49 34.0936 3.88 33.0136 3.46C31.9536 3.02 30.7936 2.8 29.5336 2.8C28.2736 2.8 27.1036 3.02 26.0236 3.46C24.9436 3.88 24.0036 4.49 23.2036 5.29C22.4236 6.07 21.8036 6.99 21.3436 8.05C20.9036 9.09 20.6836 10.24 20.6836 11.5C20.6836 12.74 20.9036 13.89 21.3436 14.95C21.8036 16.01 22.4236 16.94 23.2036 17.74C24.0036 18.52 24.9436 19.13 26.0236 19.57C27.1036 19.99 28.2736 20.2 29.5336 20.2ZM44.5896 22V0.999999H54.1296C56.4096 0.999999 58.4196 1.44 60.1596 2.32C61.8996 3.18 63.2596 4.39 64.2396 5.95C65.2196 7.51 65.7096 9.36 65.7096 11.5C65.7096 13.62 65.2196 15.47 64.2396 17.05C63.2596 18.61 61.8996 19.83 60.1596 20.71C58.4196 21.57 56.4096 22 54.1296 22H44.5896ZM49.4496 18.01H53.8896C55.2896 18.01 56.4996 17.75 57.5196 17.23C58.5596 16.69 59.3596 15.93 59.9196 14.95C60.4996 13.97 60.7896 12.82 60.7896 11.5C60.7896 10.16 60.4996 9.01 59.9196 8.05C59.3596 7.07 58.5596 6.32 57.5196 5.8C56.4996 5.26 55.2896 4.99 53.8896 4.99H49.4496V18.01ZM79.5748 22.36C77.9148 22.36 76.3748 22.09 74.9548 21.55C73.5548 21.01 72.3348 20.25 71.2948 19.27C70.2748 18.29 69.4748 17.14 68.8948 15.82C68.3348 14.5 68.0548 13.06 68.0548 11.5C68.0548 9.94 68.3348 8.5 68.8948 7.18C69.4748 5.86 70.2848 4.71 71.3248 3.73C72.3648 2.75 73.5848 1.99 74.9848 1.45C76.3848 0.909999 77.9048 0.64 79.5448 0.64C81.2048 0.64 82.7248 0.909999 84.1048 1.45C85.5048 1.99 86.7148 2.75 87.7348 3.73C88.7748 4.71 89.5848 5.86 90.1648 7.18C90.7448 8.48 91.0348 9.92 91.0348 11.5C91.0348 13.06 90.7448 14.51 90.1648 15.85C89.5848 17.17 88.7748 18.32 87.7348 19.3C86.7148 20.26 85.5048 21.01 84.1048 21.55C82.7248 22.09 81.2148 22.36 79.5748 22.36ZM79.5448 18.22C80.4848 18.22 81.3448 18.06 82.1248 17.74C82.9248 17.42 83.6248 16.96 84.2248 16.36C84.8248 15.76 85.2848 15.05 85.6048 14.23C85.9448 13.41 86.1148 12.5 86.1148 11.5C86.1148 10.5 85.9448 9.59 85.6048 8.77C85.2848 7.95 84.8248 7.24 84.2248 6.64C83.6448 6.04 82.9548 5.58 82.1548 5.26C81.3548 4.94 80.4848 4.78 79.5448 4.78C78.6048 4.78 77.7348 4.94 76.9348 5.26C76.1548 5.58 75.4648 6.04 74.8648 6.64C74.2648 7.24 73.7948 7.95 73.4548 8.77C73.1348 9.59 72.9748 10.5 72.9748 11.5C72.9748 12.48 73.1348 13.39 73.4548 14.23C73.7948 15.05 74.2548 15.76 74.8348 16.36C75.4348 16.96 76.1348 17.42 76.9348 17.74C77.7348 18.06 78.6048 18.22 79.5448 18.22Z" fill="#FAFAFA"/>
</svg>
